#!OML:ASF H:\Male1\Project 1\Capture day 1\Session 1\Male1.ASF
:FULLY-SPECIFIED
:DEGREES
588
root 8.48147 15.4689 3.88512 177.339 8.60923 -179.668
lowerback 7.09074 1.22139 -1.59387
upperback 4.09309 1.83075 -0.867822
thorax 0.229858 1.02791 -0.121185
lowerneck -7.95673 8.0705 11.1298
upperneck 3.26712 10.1595 -8.73888
head 3.2751 4.9154 -3.83331
rclavicle 1.43622e-014 -1.35174e-014
rhumerus 5.53583 27.6952 -93.5563
rradius 115.872
rwrist -23.6685
rhand -37.6546 23.0407
rfingers 7.12502
rthumb -10.7061 -6.66652
lclavicle 1.43622e-014 -1.35174e-014
lhumerus 3.67081 -16.0082 95.9146
lradius 126.735
lwrist 17.7934
lhand -41.5512 -5.97349
lfingers 7.12502
lthumb -14.4628 23.5025
rfemur -0.650886 22.4217 22.2426
rtibia 20.9804
rfoot -34.9083 -32.869
rtoes -5.94064
lfemur 1.14831 -20.7025 -18.163
ltibia 18.9192
lfoot -24.8973 31.8497
ltoes -1.95438
589
root 8.48743 15.4666 3.88478 177.232 8.8143 -179.449
lowerback 7.0444 1.23475 -1.30844
upperback 4.13866 1.86711 -0.766526
thorax 0.30672 1.04913 -0.177155
lowerneck -8.24938 8.01252 11.0816
upperneck 3.42513 10.0654 -8.74583
head 3.35879 4.86154 -3.82238
rclavicle -8.89561e-015 -2.14687e-014
rhumerus 5.66221 30.9795 -93.6051
rradius 115.298
rwrist -23.5975
rhand -36.182 22.393
rfingers 7.12502
rthumb -9.28537 -7.38249
lclavicle -8.89561e-015 -2.14687e-014
lhumerus 3.25222 -19.2983 96.0143
lradius 125.928
lwrist 17.0306
lhand -39.4823 -5.26593
lfingers 7.12502
lthumb -12.4687 24.3421
rfemur -0.461218 22.3605 22.5361
rtibia 20.8479
rfoot -34.602 -32.8101
rtoes -6.30578
lfemur 1.25592 -20.6069 -17.9579
ltibia 19.1095
lfoot -25.1639 31.8135
ltoes -1.68657
590
root 8.49367 15.4638 3.88471 177.109 8.99202 -179.287
lowerback 7.01432 1.25699 -1.06341
upperback 4.18323 1.91358 -0.693955
thorax 0.373674 1.07596 -0.241104
lowerneck -8.57467 7.93003 11.0448
upperneck 3.62569 9.93379 -8.72588
head 3.45608 4.78907 -3.80666
rclavicle -1.78906e-015 3.97569e-015
rhumerus 5.88088 34.4763 -93.4567
rradius 114.631
rwrist -24.0707
rhand -33.4665 21.372
rfingers 7.12502
rthumb -6.66458 -8.50308
lclavicle -1.78906e-015 3.97569e-015
lhumerus 2.95233 -22.6613 95.9242
lradius 124.929
lwrist 16.4561
lhand -36.9568 -4.17673
lfingers 7.12502
lthumb -10.0329 25.5641
rfemur -0.283436 22.2986 22.7774
rtibia 20.7716
rfoot -34.3769 -32.7342
rtoes -6.59035
lfemur 1.39475 -20.5 -17.814
ltibia 19.245
lfoot -25.3527 31.7858
ltoes -1.53605
591
root 8.50039 15.46 3.88486 176.947 9.11838 -179.245
lowerback 7.0092 1.28393 -0.938286
upperback 4.23095 1.96101 -0.659593
thorax 0.428188 1.10281 -0.277854
lowerneck -8.96447 7.80813 10.9188
upperneck 3.89207 9.74608 -8.57992
head 3.56723 4.69032 -3.74078
rclavicle -2.00276e-014 7.15625e-015
rhumerus 6.02128 37.8605 -93.2244
rradius 114.174
rwrist -25.5714
rhand -28.227 20.0287
rfingers 7.12502
rthumb -1.60512 -9.94503
lclavicle -2.00276e-014 7.15625e-015
lhumerus 2.74514 -25.5797 95.733
lradius 123.909
lwrist 15.9661
lhand -34.3111 -2.84153
lfingers 7.12502
lthumb -7.47984 27.0062
rfemur -0.121521 22.2249 22.9022
rtibia 20.7927
rfoot -34.2413 -32.6474
rtoes -6.84847
lfemur 1.59605 -20.394 -17.8063
ltibia 19.287
lfoot -25.4259 31.7716
ltoes -1.53413
592
root 8.50757 15.4552 3.88533 176.739 9.17707 -179.339
lowerback 7.03066 1.30322 -0.963105
upperback 4.28546 1.99177 -0.658494
thorax 0.471817 1.12018 -0.264408
lowerneck -9.38026 7.64992 10.6949
upperneck 4.1971 9.51144 -8.3172
head 3.67968 4.57083 -3.6273
rclavicle 2.5842e-014 -1.15295e-014
rhumerus 5.97725 40.5003 -93.0977
rradius 113.977
rwrist -27.325
rhand -24.3671 18.6479
rfingers 7.12502
rthumb 2.12286 -11.3213
lclavicle 2.5842e-014 -1.15295e-014
lhumerus 2.61514 -27.5636 95.5314
lradius 123.094
lwrist 15.6256
lhand -31.6562 -1.43926
lfingers 7.12502
lthumb -4.91677 28.4837
rfemur 0.0297907 22.135 22.895
rtibia 20.91
rfoot -34.199 -32.5518
rtoes -7.05896
lfemur 1.85919 -20.2941 -17.9493
ltibia 19.2352
lfoot -25.3705 31.7627
ltoes -1.69953
593
root 8.51491 15.4497 3.88634 176.502 9.17085 -179.51
lowerback 7.0703 1.30133 -1.10204
upperback 4.34502 1.98901 -0.659705
thorax 0.507333 1.1193 -0.187768
lowerneck -9.76061 7.46988 10.4017
upperneck 4.49776 9.25602 -8.00026
head 3.77859 4.44346 -3.49011
rclavicle 5.31749e-015 -1.15295e-014
rhumerus 5.65821 41.9941 -93.1914
rradius 114.117
rwrist -28.9209
rhand -21.7856 17.7433
rfingers 7.12502
rthumb 4.61575 -12.1864
lclavicle 5.31749e-015 -1.15295e-014
lhumerus 2.52303 -28.4077 95.3786
lradius 122.611
lwrist 15.3108
lhand -29.5023 -0.23525
lfingers 7.12502
lthumb -2.83685 29.7256
rfemur 0.178101 22.0301 22.8119
rtibia 21.0824
rfoot -34.2354 -32.4514
rtoes -7.18208
lfemur 2.15039 -20.1876 -18.171
ltibia 19.1246
lfoot -25.199 31.7383
ltoes -2.03061
594
root 8.52215 15.4444 3.88831 176.274 9.12433 -179.663
lowerback 7.12258 1.27471 -1.23962
upperback 4.39877 1.95264 -0.654074
thorax 0.529968 1.10134 -0.103148
lowerneck -10.0687 7.27366 10.0733
upperneck 4.76916 8.98715 -7.64773
head 3.85421 4.3125 -3.34087
rclavicle 1.80894e-014 2.78299e-015
rhumerus 5.09256 42.0729 -93.519
rradius 114.553
rwrist -29.7358
rhand -21.9163 18.1513
rfingers 7.12502
rthumb 4.48963 -11.7811
lclavicle 1.80894e-014 2.78299e-015
lhumerus 2.45187 -28.2186 95.2299
lradius 122.481
lwrist 15.0766
lhand -28.1001 0.573602
lfingers 7.12502
lthumb -1.48256 30.5482
rfemur 0.323319 21.9304 22.7485
rtibia 21.2545
rfoot -34.3111 -32.3686
rtoes -7.21689
lfemur 2.41877 -20.0505 -18.353
ltibia 19.0061
lfoot -24.9417 31.674
ltoes -2.49154
595
root 8.5289 15.4402 3.89131 176.079 9.06724 -179.733
lowerback 7.16688 1.22784 -1.33772
upperback 4.44775 1.88991 -0.600552
thorax 0.55202 1.06955 0.0104831
lowerneck -10.2769 7.07271 9.7215
upperneck 4.98407 8.72435 -7.30698
head 3.89863 4.1863 -3.19513
rclavicle 1.4064e-014 9.14409e-015
rhumerus 4.45791 40.8975 -93.8507
rradius 115.158
rwrist -29.5463
rhand -24.7465 19.6968
rfingers 7.12502
rthumb 1.75636 -10.2757
lclavicle 1.4064e-014 9.14409e-015
lhumerus 2.42339 -27.2461 95.103
lradius 122.608
lwrist 14.87
lhand -27.7247 0.833272
lfingers 7.12502
lthumb -1.12 30.8101
rfemur 0.460118 21.8394 22.766
rtibia 21.3912
rfoot -34.3832 -32.3046
rtoes -7.17285
lfemur 2.63692 -19.8956 -18.424
ltibia 18.9141
lfoot -24.6671 31.5713
ltoes -2.96712
596
root 8.53483 15.4371 3.89509 175.914 9.02161 -179.723
lowerback 7.19225 1.17076 -1.39539
upperback 4.49856 1.81517 -0.501343
thorax 0.586502 1.03131 0.149823
lowerneck -10.3963 6.87634 9.3932
upperneck 5.1581 8.47765 -7.03237
head 3.92361 4.06769 -3.07512
rclavicle -1.35671e-014 1.66979e-014
rhumerus 3.96177 38.7704 -93.9754
rradius 115.776
rwrist -28.472
rhand -28.2521 20.8762
rfingers 7.12502
rthumb -1.62943 -9.09731
lclavicle -1.35671e-014 1.66979e-014
lhumerus 2.48501 -25.7657 94.9513
lradius 122.886
lwrist 14.6939
lhand -28.4047 0.554218
lfingers 7.12502
lthumb -1.77682 30.5266
rfemur 0.581093 21.729 22.8517
rtibia 21.4957
rfoot -34.3975 -32.244
rtoes -7.137
lfemur 2.81891 -19.7533 -18.4018
ltibia 18.8462
lfoot -24.4312 31.4567
ltoes -3.34818
597
root 8.54017 15.4347 3.89961 175.759 8.99326 -179.704
lowerback 7.21471 1.11257 -1.43368
upperback 4.55098 1.74051 -0.416467
thorax 0.625656 0.993749 0.263728
lowerneck -10.4636 6.69236 9.15359
upperneck 5.32986 8.24628 -6.82969
head 3.94918 3.95614 -2.99108
rclavicle -2.68359e-014 -1.39149e-014
rhumerus 3.69132 36.1355 -93.8634
rradius 116.271
rwrist -26.8173
rhand -31.3149 21.0593
rfingers 7.12502
rthumb -4.58718 -8.87104
lclavicle -2.68359e-014 -1.39149e-014
lhumerus 2.63054 -24.191 94.7025
lradius 123.207
lwrist 14.5645
lhand -29.8952 -0.129755
lfingers 7.12502
lthumb -3.21624 29.8257
rfemur 0.680862 21.5843 22.9293
rtibia 21.5985
rfoot -34.338 -32.1694
rtoes -7.18184
lfemur 2.99861 -19.6435 -18.3761
ltibia 18.7735
lfoot -24.2442 31.3615
ltoes -3.60346
